<svg width="24" height="24" viewBox="0 0 24 24" fill="none" xmlns="http://www.w3.org/2000/svg">
<path d="M14.3498 2H9.64977C8.60977 2 7.75977 2.84 7.75977 3.88V4.82C7.75977 5.86 8.59977 6.7 9.63977 6.7H14.3498C15.3898 6.7 16.2298 5.86 16.2298 4.82V3.88C16.2398 2.84 15.3898 2 14.3498 2Z" fill="#292D32"/>
<path d="M17.24 4.81998C17.24 6.40998 15.94 7.70998 14.35 7.70998H9.65004C8.06004 7.70998 6.76004 6.40998 6.76004 4.81998C6.76004 4.25998 6.16004 3.90998 5.66004 4.16998C4.25004 4.91998 3.29004 6.40998 3.29004 8.11998V17.53C3.29004 19.99 5.30004 22 7.76004 22H16.24C18.7 22 20.71 19.99 20.71 17.53V8.11998C20.71 6.40998 19.75 4.91998 18.34 4.16998C17.84 3.90998 17.24 4.25998 17.24 4.81998ZM12.38 16.95H8.00004C7.59004 16.95 7.25004 16.61 7.25004 16.2C7.25004 15.79 7.59004 15.45 8.00004 15.45H12.38C12.79 15.45 13.13 15.79 13.13 16.2C13.13 16.61 12.79 16.95 12.38 16.95ZM15 12.95H8.00004C7.59004 12.95 7.25004 12.61 7.25004 12.2C7.25004 11.79 7.59004 11.45 8.00004 11.45H15C15.41 11.45 15.75 11.79 15.75 12.2C15.75 12.61 15.41 12.95 15 12.95Z" fill="#292D32"/>
</svg>
