<svg xmlns="http://www.w3.org/2000/svg" viewBox="0 0 182.2 114.69"><defs><style>.cls-1{fill:#ff8622;}.cls-2{fill:#8c8d92;}</style></defs><g id="ORIGINAL"><path class="cls-1" d="M65.72,28.24a20.3,20.3,0,0,0-6.91.87,20.9,20.9,0,0,0-7.28,4.1l-1,.86L43.22,13.68H34.37l-16,44.69h0q-1,2.87-2.05,5.71c9,2.83,14.64.48,16.5-.43,4-2,6.46-5.29,11.39-11.93.38-.51.72-1,1-1.42L47.59,57l2.54,7.1H61.29l-8.78-24.5A53.59,53.59,0,0,1,65.72,28.24Zm-34.14,24,7.18-20.06.83,2.34.07.18.21.58c.07.18.2.55.38,1.08l2,5.69C38.64,45.84,35.39,49.36,31.58,52.24Z"/><path class="cls-2" d="M85.65,64.08v-.72a12.56,12.56,0,0,1-3.68.9c-1.29.12-2.64.18-4,.18a18.19,18.19,0,0,1-5.22-.72,12.26,12.26,0,0,1-4.21-2.16A10,10,0,0,1,65.7,58a11.44,11.44,0,0,1-1-4.94,12.52,12.52,0,0,1,1.19-5.58,12,12,0,0,1,3.17-4A13.26,13.26,0,0,1,73.66,41a18.87,18.87,0,0,1,5.51-.79q1.72,0,3.24,0a17.3,17.3,0,0,1,3.16.4q-.64-4-5.61-4a7.61,7.61,0,0,0-3.46.79,13.21,13.21,0,0,0-3.81,3.6l-6.92-6a23.71,23.71,0,0,1,6.63-5.54,16.12,16.12,0,0,1,7.7-1.8,20.24,20.24,0,0,1,6.05.86,14,14,0,0,1,4.72,2.52,11.14,11.14,0,0,1,3.06,4.14A14.28,14.28,0,0,1,95,41V64.08Zm0-14a14.13,14.13,0,0,0-2.74-.47c-1-.07-1.94-.11-3-.11a12.58,12.58,0,0,0-2.13.18,7.32,7.32,0,0,0-1.87.58,3.38,3.38,0,0,0-1.33,1.08,2.75,2.75,0,0,0-.5,1.69,2.09,2.09,0,0,0,1.26,1.95,7.76,7.76,0,0,0,3.49.64,10.31,10.31,0,0,0,3.78-.68,7.18,7.18,0,0,0,3-2.2Z"/><path class="cls-2" d="M98.75,68.54q1.29-.29,3-.75a20.14,20.14,0,0,0,3.27-1.19,10.17,10.17,0,0,0,2.66-1.76A3.8,3.8,0,0,0,109,62.42L94.72,28.08h10.51l8.5,21.31,8.49-21.31h10.3L117.11,65.74a14.23,14.23,0,0,1-5.51,7.56,21.9,21.9,0,0,1-10.76,3.81Z"/><path class="cls-2" d="M145.62,28.08V50.26a4.6,4.6,0,0,0,1.77,4,6.8,6.8,0,0,0,4.14,1.29,8.81,8.81,0,0,0,4.28-.9,7.82,7.82,0,0,0,2.63-2.34V28.08h9.5v36h-9.29v-1a20.36,20.36,0,0,1-8.13,1.44,18.12,18.12,0,0,1-5.65-.86,13.15,13.15,0,0,1-4.58-2.56,12.14,12.14,0,0,1-3.06-4.17,14.12,14.12,0,0,1-1.11-5.8v-23Z"/><path class="cls-2" d="M26.47,87.65H22.4V98.6H20.94V87.65H16.87V86.29h9.6Z"/><path class="cls-2" d="M29.93,86.29h7.74v1.36H31.39v3.86h5.86v1.35H31.39v4.38H38V98.6h-8Z"/><path class="cls-2" d="M50.6,88.83a3.45,3.45,0,0,0-1.37-1.12,4,4,0,0,0-1.7-.38,4.23,4.23,0,0,0-1.89.42,4.83,4.83,0,0,0-1.49,1.12,5.27,5.27,0,0,0-1,1.64,5.5,5.5,0,0,0-.35,1.93,5.74,5.74,0,0,0,.35,2,5,5,0,0,0,1,1.62,4.46,4.46,0,0,0,3.39,1.49,4.37,4.37,0,0,0,2-.45,4.57,4.57,0,0,0,1.55-1.27l1.1.92a5.14,5.14,0,0,1-2,1.63,6.43,6.43,0,0,1-2.65.52,6.29,6.29,0,0,1-2.47-.48,6.15,6.15,0,0,1-2-1.35,6.26,6.26,0,0,1-1.33-2,7.31,7.31,0,0,1,0-5.13A6.15,6.15,0,0,1,43,87.85a6.27,6.27,0,0,1,2-1.37,6.18,6.18,0,0,1,2.53-.5,6.55,6.55,0,0,1,2.4.45,4.38,4.38,0,0,1,1.94,1.48Z"/><path class="cls-2" d="M56,86.29h1.46v5.22H64V86.29h1.47V98.6H64V92.86H57.42V98.6H56Z"/><path class="cls-2" d="M70.25,86.29H72.1l7.13,10.22h0V86.29h1.46V98.6H78.88L71.75,88.38h0V98.6H70.25Z"/><path class="cls-2" d="M91.24,98.91a6.81,6.81,0,0,1-2.58-.48,6.33,6.33,0,0,1-2-1.35,6.07,6.07,0,0,1-1.34-2,7.2,7.2,0,0,1,0-5.17,6,6,0,0,1,1.34-2,6.33,6.33,0,0,1,2-1.35,7.2,7.2,0,0,1,5.17,0,6.33,6.33,0,0,1,2,1.35,6,6,0,0,1,1.34,2,7.2,7.2,0,0,1,0,5.17,6.07,6.07,0,0,1-1.34,2,6.33,6.33,0,0,1-2,1.35A6.82,6.82,0,0,1,91.24,98.91Zm0-1.35a4.93,4.93,0,0,0,2-.4,4.61,4.61,0,0,0,1.54-1.1,5,5,0,0,0,1-1.62,5.86,5.86,0,0,0,0-4,5,5,0,0,0-1-1.62,4.61,4.61,0,0,0-1.54-1.1,5.08,5.08,0,0,0-4,0,4.61,4.61,0,0,0-1.54,1.1,5,5,0,0,0-1,1.62,5.86,5.86,0,0,0,0,4,5,5,0,0,0,1,1.62,4.61,4.61,0,0,0,1.54,1.1A4.92,4.92,0,0,0,91.24,97.56Z"/><path class="cls-2" d="M101.77,86.29h1.46V97.24h5.63V98.6h-7.09Z"/><path class="cls-2" d="M117.92,98.91a6.74,6.74,0,0,1-2.58-.48,6.48,6.48,0,0,1-2-1.35A6,6,0,0,1,112,95a7.2,7.2,0,0,1,0-5.17,6,6,0,0,1,1.33-2,6.48,6.48,0,0,1,2-1.35,7.17,7.17,0,0,1,5.16,0,6.37,6.37,0,0,1,2,1.35,6.13,6.13,0,0,1,1.34,2,7.2,7.2,0,0,1,0,5.17,6.23,6.23,0,0,1-1.34,2,6.37,6.37,0,0,1-2,1.35A6.74,6.74,0,0,1,117.92,98.91Zm0-1.35a4.93,4.93,0,0,0,2-.4,4.57,4.57,0,0,0,1.53-1.1,4.8,4.8,0,0,0,1-1.62,5.71,5.71,0,0,0,0-4,4.8,4.8,0,0,0-1-1.62,4.57,4.57,0,0,0-1.53-1.1,4.93,4.93,0,0,0-2-.4,4.85,4.85,0,0,0-2,.4,4.61,4.61,0,0,0-1.54,1.1,5,5,0,0,0-1,1.62,5.71,5.71,0,0,0,0,4,5,5,0,0,0,1,1.62,4.61,4.61,0,0,0,1.54,1.1A4.85,4.85,0,0,0,117.92,97.56Z"/><path class="cls-2" d="M138.91,97.77a9.06,9.06,0,0,1-2.23.87,10.66,10.66,0,0,1-2.38.27,7,7,0,0,1-2.64-.47,6.15,6.15,0,0,1-2.08-1.32,6,6,0,0,1-1.36-2,6.79,6.79,0,0,1-.49-2.64,6.7,6.7,0,0,1,.51-2.65,6,6,0,0,1,1.42-2,6.68,6.68,0,0,1,2.1-1.32,7.15,7.15,0,0,1,2.6-.46,7.52,7.52,0,0,1,2.33.36,5,5,0,0,1,2,1.25l-1.09,1.15a4.2,4.2,0,0,0-1.53-1,4.64,4.64,0,0,0-1.83-.37,5,5,0,0,0-2,.38,4.8,4.8,0,0,0-1.58,1.07,4.91,4.91,0,0,0-1,1.61,5.69,5.69,0,0,0,0,4.09,5,5,0,0,0,1,1.62,4.59,4.59,0,0,0,1.61,1.07,5.37,5.37,0,0,0,2.07.39,6.65,6.65,0,0,0,1.56-.19,5.78,5.78,0,0,0,1.5-.53V93.07h-2.83V91.71h4.29Z"/><path class="cls-2" d="M143.71,86.29h1.46V98.6h-1.46Z"/><path class="cls-2" d="M150,86.29h7.74v1.36h-6.28v3.86h5.86v1.35h-5.86v4.38H158V98.6H150Z"/><path class="cls-2" d="M167.86,88.46a2.13,2.13,0,0,0-1-.86,3.08,3.08,0,0,0-1.27-.27,3.81,3.81,0,0,0-1,.12,2.85,2.85,0,0,0-.85.37,1.84,1.84,0,0,0-.6.64,2.14,2.14,0,0,0-.09,1.68,1.54,1.54,0,0,0,.42.58,3.14,3.14,0,0,0,.8.49,11.27,11.27,0,0,0,1.24.45c.47.15.93.32,1.38.49a4.35,4.35,0,0,1,1.18.66,3,3,0,0,1,.82,1,3.42,3.42,0,0,1-1,4.23,4.41,4.41,0,0,1-1.38.66,6.2,6.2,0,0,1-1.62.21,6.35,6.35,0,0,1-1.07-.09,5.18,5.18,0,0,1-1-.3,3.88,3.88,0,0,1-.93-.52,3.14,3.14,0,0,1-.75-.79l1.26-1a2.46,2.46,0,0,0,1.11,1,3.42,3.42,0,0,0,1.51.35,3.52,3.52,0,0,0,.95-.14,2.85,2.85,0,0,0,.86-.41,2.37,2.37,0,0,0,.63-.67,1.75,1.75,0,0,0,.24-.92,2,2,0,0,0-.19-.93,1.74,1.74,0,0,0-.59-.62,5,5,0,0,0-1-.47l-1.43-.49a9.68,9.68,0,0,1-1.22-.47,3.51,3.51,0,0,1-1-.67,2.76,2.76,0,0,1-.64-.93,3.31,3.31,0,0,1-.24-1.32,3.27,3.27,0,0,1,.35-1.54,3.15,3.15,0,0,1,.94-1.11,4.32,4.32,0,0,1,1.34-.67,5.4,5.4,0,0,1,1.56-.22,5.32,5.32,0,0,1,1.91.32,3.79,3.79,0,0,1,1.54,1.12Z"/></g></svg>